<svg width="21" height="20" viewBox="0 0 21 20" fill="none" xmlns="http://www.w3.org/2000/svg">
<g id="message-dots">
<g id="Path">
<path d="M3.66602 17.5003V6.66699C3.66602 5.28628 4.7853 4.16699 6.16602 4.16699H14.4993C15.8801 4.16699 16.9993 5.28628 16.9993 6.66699V11.667C16.9993 13.0477 15.8801 14.167 14.4993 14.167H6.99935L3.66602 17.5003" stroke="#4B465C" stroke-width="1.5" stroke-linecap="round" stroke-linejoin="round"/>
<path d="M3.66602 17.5003V6.66699C3.66602 5.28628 4.7853 4.16699 6.16602 4.16699H14.4993C15.8801 4.16699 16.9993 5.28628 16.9993 6.66699V11.667C16.9993 13.0477 15.8801 14.167 14.4993 14.167H6.99935L3.66602 17.5003" stroke="white" stroke-opacity="0.2" stroke-width="1.5" stroke-linecap="round" stroke-linejoin="round"/>
</g>
<g id="Path_2">
<path d="M10.3327 9.16641V9.17474" stroke="#4B465C" stroke-width="1.5" stroke-linecap="round" stroke-linejoin="round"/>
<path d="M10.3327 9.16641V9.17474" stroke="white" stroke-opacity="0.2" stroke-width="1.5" stroke-linecap="round" stroke-linejoin="round"/>
</g>
<g id="Path_3">
<path d="M6.99967 9.16641V9.17474" stroke="#4B465C" stroke-width="1.5" stroke-linecap="round" stroke-linejoin="round"/>
<path d="M6.99967 9.16641V9.17474" stroke="white" stroke-opacity="0.2" stroke-width="1.5" stroke-linecap="round" stroke-linejoin="round"/>
</g>
<g id="Path_4">
<path d="M13.6667 9.16641V9.17474" stroke="#4B465C" stroke-width="1.5" stroke-linecap="round" stroke-linejoin="round"/>
<path d="M13.6667 9.16641V9.17474" stroke="white" stroke-opacity="0.2" stroke-width="1.5" stroke-linecap="round" stroke-linejoin="round"/>
</g>
</g>
</svg>
