<svg width="21" height="20" viewBox="0 0 21 20" fill="none" xmlns="http://www.w3.org/2000/svg">
<g id="paperclip">
<g id="Path">
<path d="M12.8332 5.83339L7.41658 11.2501C6.72623 11.9404 6.72623 13.0597 7.41658 13.7501C8.10694 14.4404 9.22623 14.4404 9.91658 13.7501L15.3332 8.33339C16.714 6.95267 16.714 4.7141 15.3332 3.33339C13.9525 1.95267 11.714 1.95267 10.3332 3.33339L4.91658 8.75005C2.84551 10.8211 2.84551 14.179 4.91658 16.2501C6.98765 18.3211 10.3455 18.3211 12.4166 16.2501L17.8332 10.8334" stroke="#4B465C" stroke-width="1.5" stroke-linecap="round" stroke-linejoin="round"/>
<path d="M12.8332 5.83339L7.41658 11.2501C6.72623 11.9404 6.72623 13.0597 7.41658 13.7501C8.10694 14.4404 9.22623 14.4404 9.91658 13.7501L15.3332 8.33339C16.714 6.95267 16.714 4.7141 15.3332 3.33339C13.9525 1.95267 11.714 1.95267 10.3332 3.33339L4.91658 8.75005C2.84551 10.8211 2.84551 14.179 4.91658 16.2501C6.98765 18.3211 10.3455 18.3211 12.4166 16.2501L17.8332 10.8334" stroke="white" stroke-opacity="0.2" stroke-width="1.5" stroke-linecap="round" stroke-linejoin="round"/>
</g>
</g>
</svg>
