<svg xmlns="http://www.w3.org/2000/svg" width="22" height="23" viewBox="0 0 22 23" fill="none">
  <path d="M17.4167 2.81238H13.7501C12.7376 2.81238 11.9167 3.63319 11.9167 4.64571V15.6457C11.9167 17.6708 13.5584 19.3124 15.5834 19.3124C17.6085 19.3124 19.2501 17.6708 19.2501 15.6457V4.64571C19.2501 3.63319 18.4293 2.81238 17.4167 2.81238" stroke="#185B6A" stroke-opacity="0.5" stroke-width="1.5" stroke-linecap="round" stroke-linejoin="round"/>
  <path d="M11.9166 6.7998L10.0833 4.96646C9.36734 4.25076 8.20684 4.25076 7.49093 4.96646L4.89859 7.5588C4.18289 8.27471 4.18289 9.43521 4.89859 10.1511L13.1486 18.4011" stroke="#185B6A" stroke-opacity="0.5" stroke-width="1.5" stroke-linecap="round" stroke-linejoin="round"/>
  <path d="M6.69167 11.979H4.58333C3.57081 11.979 2.75 12.7998 2.75 13.8123V17.479C2.75 18.4915 3.57081 19.3123 4.58333 19.3123H15.5833" stroke="#185B6A" stroke-opacity="0.5" stroke-width="1.5" stroke-linecap="round" stroke-linejoin="round"/>
  <path d="M15.5833 15.6458V15.6549" stroke="#185B6A" stroke-opacity="0.5" stroke-width="1.5" stroke-linecap="round" stroke-linejoin="round"/>
</svg>