<svg width="163" height="40" viewBox="0 0 163 40" fill="none" xmlns="http://www.w3.org/2000/svg">
<path d="M34.2748 4.18525L0 18.1361V9.76559L24 0L34.2748 4.18525Z" fill="#185B6A"/>
<path d="M48 9.76559V14.5947L5.93658 31.7113L0 29.2968V24.7538L42.3932 7.4941L48 9.76559Z" fill="#185B6A"/>
<path d="M14.055 35.0202L48 21.2124V29.2968L24 39.0623L14.055 35.0202Z" fill="#185B6A"/>
<path d="M67.656 35.0386V12.6386H72.84V30.8146H84.072V35.0386H67.656ZM97.5048 35.4226C95.7341 35.4226 94.0914 35.1346 92.5768 34.5586C91.0834 33.9826 89.7821 33.1719 88.6727 32.1266C87.5848 31.0812 86.7314 29.8546 86.1128 28.4466C85.5154 27.0386 85.2168 25.5026 85.2168 23.8386C85.2168 22.1746 85.5154 20.6386 86.1128 19.2306C86.7314 17.8226 87.5954 16.5959 88.7048 15.5506C89.8141 14.5052 91.1154 13.6946 92.6088 13.1186C94.1021 12.5426 95.7234 12.2546 97.4728 12.2546C99.2434 12.2546 100.865 12.5426 102.337 13.1186C103.83 13.6946 105.121 14.5052 106.209 15.5506C107.318 16.5959 108.182 17.8226 108.801 19.2306C109.419 20.6172 109.729 22.1532 109.729 23.8386C109.729 25.5026 109.419 27.0492 108.801 28.4786C108.182 29.8866 107.318 31.1132 106.209 32.1586C105.121 33.1826 103.83 33.9826 102.337 34.5586C100.865 35.1346 99.2541 35.4226 97.5048 35.4226ZM97.4728 31.0066C98.4754 31.0066 99.3928 30.8359 100.225 30.4946C101.078 30.1532 101.825 29.6626 102.465 29.0226C103.105 28.3826 103.595 27.6252 103.937 26.7506C104.299 25.8759 104.481 24.9052 104.481 23.8386C104.481 22.7719 104.299 21.8012 103.937 20.9266C103.595 20.0519 103.105 19.2946 102.465 18.6546C101.846 18.0146 101.11 17.5239 100.257 17.1826C99.4034 16.8412 98.4754 16.6706 97.4728 16.6706C96.4701 16.6706 95.5421 16.8412 94.6888 17.1826C93.8568 17.5239 93.1208 18.0146 92.4808 18.6546C91.8408 19.2946 91.3394 20.0519 90.9768 20.9266C90.6354 21.8012 90.4648 22.7719 90.4648 23.8386C90.4648 24.8839 90.6354 25.8546 90.9768 26.7506C91.3394 27.6252 91.8301 28.3826 92.4488 29.0226C93.0888 29.6626 93.8354 30.1532 94.6888 30.4946C95.5421 30.8359 96.4701 31.0066 97.4728 31.0066ZM124.441 35.4226C122.67 35.4226 121.038 35.1452 119.545 34.5906C118.073 34.0146 116.782 33.2039 115.673 32.1586C114.585 31.1132 113.731 29.8866 113.113 28.4786C112.515 27.0706 112.217 25.5239 112.217 23.8386C112.217 22.1532 112.515 20.6066 113.113 19.1986C113.731 17.7906 114.595 16.5639 115.705 15.5186C116.814 14.4732 118.115 13.6732 119.609 13.1186C121.102 12.5426 122.745 12.2546 124.537 12.2546C126.521 12.2546 128.302 12.5852 129.881 13.2466C131.481 13.9079 132.825 14.8679 133.913 16.1266L130.585 19.1986C129.774 18.3452 128.889 17.7159 127.929 17.3106C126.969 16.8839 125.923 16.6706 124.793 16.6706C123.705 16.6706 122.713 16.8412 121.817 17.1826C120.921 17.5239 120.142 18.0146 119.481 18.6546C118.841 19.2946 118.339 20.0519 117.977 20.9266C117.635 21.8012 117.465 22.7719 117.465 23.8386C117.465 24.8839 117.635 25.8439 117.977 26.7186C118.339 27.5932 118.841 28.3612 119.481 29.0226C120.142 29.6626 120.91 30.1532 121.785 30.4946C122.681 30.8359 123.662 31.0066 124.729 31.0066C125.753 31.0066 126.745 30.8466 127.705 30.5266C128.686 30.1852 129.635 29.6199 130.553 28.8306L133.497 32.5746C132.281 33.4919 130.862 34.1959 129.241 34.6866C127.641 35.1772 126.041 35.4226 124.441 35.4226ZM128.761 31.9026V23.4866H133.497V32.5746L128.761 31.9026ZM149.192 35.4226C147.422 35.4226 145.779 35.1346 144.264 34.5586C142.771 33.9826 141.47 33.1719 140.36 32.1266C139.272 31.0812 138.419 29.8546 137.8 28.4466C137.203 27.0386 136.904 25.5026 136.904 23.8386C136.904 22.1746 137.203 20.6386 137.8 19.2306C138.419 17.8226 139.283 16.5959 140.392 15.5506C141.502 14.5052 142.803 13.6946 144.296 13.1186C145.79 12.5426 147.411 12.2546 149.16 12.2546C150.931 12.2546 152.552 12.5426 154.024 13.1186C155.518 13.6946 156.808 14.5052 157.896 15.5506C159.006 16.5959 159.87 17.8226 160.488 19.2306C161.107 20.6172 161.416 22.1532 161.416 23.8386C161.416 25.5026 161.107 27.0492 160.488 28.4786C159.87 29.8866 159.006 31.1132 157.896 32.1586C156.808 33.1826 155.518 33.9826 154.024 34.5586C152.552 35.1346 150.942 35.4226 149.192 35.4226ZM149.16 31.0066C150.163 31.0066 151.08 30.8359 151.912 30.4946C152.766 30.1532 153.512 29.6626 154.152 29.0226C154.792 28.3826 155.283 27.6252 155.624 26.7506C155.987 25.8759 156.168 24.9052 156.168 23.8386C156.168 22.7719 155.987 21.8012 155.624 20.9266C155.283 20.0519 154.792 19.2946 154.152 18.6546C153.534 18.0146 152.798 17.5239 151.944 17.1826C151.091 16.8412 150.163 16.6706 149.16 16.6706C148.158 16.6706 147.23 16.8412 146.376 17.1826C145.544 17.5239 144.808 18.0146 144.168 18.6546C143.528 19.2946 143.027 20.0519 142.664 20.9266C142.323 21.8012 142.152 22.7719 142.152 23.8386C142.152 24.8839 142.323 25.8546 142.664 26.7506C143.027 27.6252 143.518 28.3826 144.136 29.0226C144.776 29.6626 145.523 30.1532 146.376 30.4946C147.23 30.8359 148.158 31.0066 149.16 31.0066Z" fill="#185B6A"/>
</svg>
